<mxfile host="app.diagrams.net" modified="2023-05-27T11:38:58.957Z" agent="Mozilla/5.0 (Windows NT 10.0; Win64; x64) AppleWebKit/537.36 (KHTML, like Gecko) Chrome/113.0.0.0 Safari/537.36" etag="UMgAcZYp6vNBkfpDOeBl" version="21.3.3" type="github">
  <diagram name="Página-1" id="WQ8vJuSL8quvfqCCU9tl">
    <mxGraphModel dx="1467" dy="817" grid="1" gridSize="10" guides="1" tooltips="1" connect="1" arrows="1" fold="1" page="1" pageScale="1" pageWidth="827" pageHeight="1169" math="0" shadow="0">
      <root>
        <mxCell id="0" />
        <mxCell id="1" parent="0" />
        <mxCell id="54azmL67wLqtKhJhB7nY-5" style="edgeStyle=orthogonalEdgeStyle;rounded=0;orthogonalLoop=1;jettySize=auto;html=1;entryX=0;entryY=0;entryDx=62.5;entryDy=0;entryPerimeter=0;" edge="1" parent="1" source="54azmL67wLqtKhJhB7nY-1" target="54azmL67wLqtKhJhB7nY-4">
          <mxGeometry relative="1" as="geometry" />
        </mxCell>
        <mxCell id="54azmL67wLqtKhJhB7nY-1" value="Início" style="ellipse;whiteSpace=wrap;html=1;" vertex="1" parent="1">
          <mxGeometry x="310" y="20" width="120" height="40" as="geometry" />
        </mxCell>
        <mxCell id="54azmL67wLqtKhJhB7nY-13" style="edgeStyle=orthogonalEdgeStyle;rounded=0;orthogonalLoop=1;jettySize=auto;html=1;entryX=0;entryY=0;entryDx=76.25;entryDy=0;entryPerimeter=0;" edge="1" parent="1" source="54azmL67wLqtKhJhB7nY-3" target="54azmL67wLqtKhJhB7nY-10">
          <mxGeometry relative="1" as="geometry" />
        </mxCell>
        <mxCell id="54azmL67wLqtKhJhB7nY-14" style="edgeStyle=orthogonalEdgeStyle;rounded=0;orthogonalLoop=1;jettySize=auto;html=1;entryX=0;entryY=0;entryDx=76.25;entryDy=0;entryPerimeter=0;" edge="1" parent="1" source="54azmL67wLqtKhJhB7nY-3" target="54azmL67wLqtKhJhB7nY-12">
          <mxGeometry relative="1" as="geometry" />
        </mxCell>
        <mxCell id="54azmL67wLqtKhJhB7nY-3" value="Inserir digite (1)&lt;br&gt;Retirar digite (2)" style="rhombus;whiteSpace=wrap;html=1;" vertex="1" parent="1">
          <mxGeometry x="300" y="240" width="180" height="90" as="geometry" />
        </mxCell>
        <mxCell id="54azmL67wLqtKhJhB7nY-8" style="edgeStyle=orthogonalEdgeStyle;rounded=0;orthogonalLoop=1;jettySize=auto;html=1;entryX=1;entryY=0.5;entryDx=0;entryDy=0;exitX=0;exitY=0;exitDx=70;exitDy=70;exitPerimeter=0;" edge="1" parent="1" source="54azmL67wLqtKhJhB7nY-4" target="54azmL67wLqtKhJhB7nY-7">
          <mxGeometry relative="1" as="geometry" />
        </mxCell>
        <mxCell id="54azmL67wLqtKhJhB7nY-4" value="informar o saldo&lt;br&gt;&amp;nbsp;inicial da peça" style="shape=display;whiteSpace=wrap;html=1;" vertex="1" parent="1">
          <mxGeometry x="490" y="70" width="140" height="70" as="geometry" />
        </mxCell>
        <mxCell id="54azmL67wLqtKhJhB7nY-9" style="edgeStyle=orthogonalEdgeStyle;rounded=0;orthogonalLoop=1;jettySize=auto;html=1;entryX=0.5;entryY=0;entryDx=0;entryDy=0;" edge="1" parent="1" source="54azmL67wLqtKhJhB7nY-7" target="54azmL67wLqtKhJhB7nY-3">
          <mxGeometry relative="1" as="geometry" />
        </mxCell>
        <mxCell id="54azmL67wLqtKhJhB7nY-7" value="&lt;br&gt;saldoInicial" style="shape=manualInput;whiteSpace=wrap;html=1;" vertex="1" parent="1">
          <mxGeometry x="340" y="130" width="100" height="70" as="geometry" />
        </mxCell>
        <mxCell id="54azmL67wLqtKhJhB7nY-18" style="edgeStyle=orthogonalEdgeStyle;rounded=0;orthogonalLoop=1;jettySize=auto;html=1;entryX=0.484;entryY=0.16;entryDx=0;entryDy=0;entryPerimeter=0;" edge="1" parent="1" source="54azmL67wLqtKhJhB7nY-10" target="54azmL67wLqtKhJhB7nY-16">
          <mxGeometry relative="1" as="geometry" />
        </mxCell>
        <mxCell id="54azmL67wLqtKhJhB7nY-10" value="Quantidade que&lt;br&gt;&amp;nbsp;deseja inserir" style="shape=display;whiteSpace=wrap;html=1;" vertex="1" parent="1">
          <mxGeometry x="138.75" y="330" width="150" height="70" as="geometry" />
        </mxCell>
        <mxCell id="54azmL67wLqtKhJhB7nY-19" style="edgeStyle=orthogonalEdgeStyle;rounded=0;orthogonalLoop=1;jettySize=auto;html=1;entryX=0.5;entryY=0.192;entryDx=0;entryDy=0;entryPerimeter=0;" edge="1" parent="1" source="54azmL67wLqtKhJhB7nY-12" target="54azmL67wLqtKhJhB7nY-17">
          <mxGeometry relative="1" as="geometry" />
        </mxCell>
        <mxCell id="54azmL67wLqtKhJhB7nY-12" value="Quantidade que&lt;br&gt;&amp;nbsp;deseja inserir" style="shape=display;whiteSpace=wrap;html=1;" vertex="1" parent="1">
          <mxGeometry x="520" y="330" width="140" height="60" as="geometry" />
        </mxCell>
        <mxCell id="54azmL67wLqtKhJhB7nY-24" style="edgeStyle=orthogonalEdgeStyle;rounded=0;orthogonalLoop=1;jettySize=auto;html=1;" edge="1" parent="1" source="54azmL67wLqtKhJhB7nY-16" target="54azmL67wLqtKhJhB7nY-20">
          <mxGeometry relative="1" as="geometry" />
        </mxCell>
        <mxCell id="54azmL67wLqtKhJhB7nY-16" value="&lt;br&gt;quantidadeInserir" style="shape=manualInput;whiteSpace=wrap;html=1;" vertex="1" parent="1">
          <mxGeometry x="144.38" y="420" width="145" height="80" as="geometry" />
        </mxCell>
        <mxCell id="54azmL67wLqtKhJhB7nY-51" style="edgeStyle=orthogonalEdgeStyle;rounded=0;orthogonalLoop=1;jettySize=auto;html=1;entryX=0.5;entryY=0;entryDx=0;entryDy=0;" edge="1" parent="1" source="54azmL67wLqtKhJhB7nY-17" target="54azmL67wLqtKhJhB7nY-48">
          <mxGeometry relative="1" as="geometry" />
        </mxCell>
        <mxCell id="54azmL67wLqtKhJhB7nY-17" value="&lt;br&gt;quantidadeRetirar" style="shape=manualInput;whiteSpace=wrap;html=1;" vertex="1" parent="1">
          <mxGeometry x="522.5" y="420" width="135" height="80" as="geometry" />
        </mxCell>
        <mxCell id="54azmL67wLqtKhJhB7nY-27" style="edgeStyle=orthogonalEdgeStyle;rounded=0;orthogonalLoop=1;jettySize=auto;html=1;entryX=0.502;entryY=0.031;entryDx=0;entryDy=0;entryPerimeter=0;" edge="1" parent="1" source="54azmL67wLqtKhJhB7nY-20" target="54azmL67wLqtKhJhB7nY-25">
          <mxGeometry relative="1" as="geometry" />
        </mxCell>
        <mxCell id="54azmL67wLqtKhJhB7nY-20" value="saldoAtualizadoQuantidadeInserir = quantidadeInserir + saldoInicial" style="rounded=0;whiteSpace=wrap;html=1;" vertex="1" parent="1">
          <mxGeometry x="30" y="540" width="372.5" height="60" as="geometry" />
        </mxCell>
        <mxCell id="54azmL67wLqtKhJhB7nY-38" style="edgeStyle=orthogonalEdgeStyle;rounded=0;orthogonalLoop=1;jettySize=auto;html=1;entryX=0.5;entryY=0;entryDx=0;entryDy=0;" edge="1" parent="1" source="54azmL67wLqtKhJhB7nY-25" target="54azmL67wLqtKhJhB7nY-34">
          <mxGeometry relative="1" as="geometry" />
        </mxCell>
        <mxCell id="54azmL67wLqtKhJhB7nY-25" value="saldoAtualizadoQuantidadeInserir" style="shape=display;whiteSpace=wrap;html=1;" vertex="1" parent="1">
          <mxGeometry x="105" y="640" width="222.5" height="80" as="geometry" />
        </mxCell>
        <mxCell id="54azmL67wLqtKhJhB7nY-35" style="edgeStyle=orthogonalEdgeStyle;rounded=0;orthogonalLoop=1;jettySize=auto;html=1;entryX=1;entryY=0.5;entryDx=0;entryDy=0;entryPerimeter=0;" edge="1" parent="1" source="54azmL67wLqtKhJhB7nY-34" target="54azmL67wLqtKhJhB7nY-10">
          <mxGeometry relative="1" as="geometry">
            <mxPoint x="420" y="460" as="targetPoint" />
            <Array as="points">
              <mxPoint x="420" y="815" />
              <mxPoint x="420" y="365" />
            </Array>
          </mxGeometry>
        </mxCell>
        <mxCell id="54azmL67wLqtKhJhB7nY-41" style="edgeStyle=orthogonalEdgeStyle;rounded=0;orthogonalLoop=1;jettySize=auto;html=1;entryX=0;entryY=0;entryDx=119.0625;entryDy=0;entryPerimeter=0;" edge="1" parent="1" source="54azmL67wLqtKhJhB7nY-34">
          <mxGeometry relative="1" as="geometry">
            <mxPoint x="216.5625000000001" y="930" as="targetPoint" />
          </mxGeometry>
        </mxCell>
        <mxCell id="54azmL67wLqtKhJhB7nY-34" value="Deseja adicionar &lt;br&gt;mais peças" style="rhombus;whiteSpace=wrap;html=1;" vertex="1" parent="1">
          <mxGeometry x="144.38" y="760" width="143.75" height="110" as="geometry" />
        </mxCell>
        <mxCell id="54azmL67wLqtKhJhB7nY-36" value="Sim" style="text;strokeColor=none;align=center;fillColor=none;html=1;verticalAlign=middle;whiteSpace=wrap;rounded=0;" vertex="1" parent="1">
          <mxGeometry x="320" y="780" width="60" height="30" as="geometry" />
        </mxCell>
        <mxCell id="54azmL67wLqtKhJhB7nY-43" style="edgeStyle=orthogonalEdgeStyle;rounded=0;orthogonalLoop=1;jettySize=auto;html=1;" edge="1" parent="1" source="54azmL67wLqtKhJhB7nY-40">
          <mxGeometry relative="1" as="geometry">
            <mxPoint x="390" y="240" as="targetPoint" />
            <Array as="points">
              <mxPoint x="20" y="985" />
              <mxPoint x="20" y="240" />
            </Array>
          </mxGeometry>
        </mxCell>
        <mxCell id="54azmL67wLqtKhJhB7nY-40" value="Permanecer no sistema" style="rhombus;whiteSpace=wrap;html=1;" vertex="1" parent="1">
          <mxGeometry x="145.01" y="930" width="143.75" height="110" as="geometry" />
        </mxCell>
        <mxCell id="54azmL67wLqtKhJhB7nY-44" value="Sim" style="text;strokeColor=none;align=center;fillColor=none;html=1;verticalAlign=middle;whiteSpace=wrap;rounded=0;" vertex="1" parent="1">
          <mxGeometry x="60" y="950" width="60" height="30" as="geometry" />
        </mxCell>
        <mxCell id="54azmL67wLqtKhJhB7nY-45" value="Não" style="text;strokeColor=none;align=center;fillColor=none;html=1;verticalAlign=middle;whiteSpace=wrap;rounded=0;" vertex="1" parent="1">
          <mxGeometry x="210" y="890" width="60" height="30" as="geometry" />
        </mxCell>
        <mxCell id="54azmL67wLqtKhJhB7nY-57" style="edgeStyle=orthogonalEdgeStyle;rounded=0;orthogonalLoop=1;jettySize=auto;html=1;entryX=0.502;entryY=0.01;entryDx=0;entryDy=0;entryPerimeter=0;" edge="1" parent="1" source="54azmL67wLqtKhJhB7nY-48" target="54azmL67wLqtKhJhB7nY-52">
          <mxGeometry relative="1" as="geometry" />
        </mxCell>
        <mxCell id="54azmL67wLqtKhJhB7nY-48" value="saldoInicial &amp;lt; quantidadeRetirar" style="rhombus;whiteSpace=wrap;html=1;" vertex="1" parent="1">
          <mxGeometry x="485" y="525" width="210" height="90" as="geometry" />
        </mxCell>
        <mxCell id="54azmL67wLqtKhJhB7nY-50" value="&#xa;&lt;br style=&quot;border-color: rgb(0, 0, 0); color: rgb(240, 240, 240); font-family: Helvetica; font-size: 12px; font-style: normal; font-variant-ligatures: normal; font-variant-caps: normal; font-weight: 400; letter-spacing: normal; orphans: 2; text-align: center; text-indent: 0px; text-transform: none; widows: 2; word-spacing: 0px; -webkit-text-stroke-width: 0px; background-color: rgb(42, 37, 47); text-decoration-thickness: initial; text-decoration-style: initial; text-decoration-color: initial;&quot;&gt;&lt;span style=&quot;border-color: rgb(0, 0, 0); color: rgb(240, 240, 240); font-family: Helvetica; font-size: 12px; font-style: normal; font-variant-ligatures: normal; font-variant-caps: normal; font-weight: 400; letter-spacing: normal; orphans: 2; text-align: center; text-indent: 0px; text-transform: none; widows: 2; word-spacing: 0px; -webkit-text-stroke-width: 0px; text-decoration-thickness: initial; text-decoration-style: initial; text-decoration-color: initial; background-color: rgb(42, 37, 47); float: none; display: inline !important;&quot;&gt;saldoAtualizadoQuantidadeRetirar = quantidadeInserir + saldoInicial&lt;/span&gt;&#xa;&#xa;" style="rounded=0;whiteSpace=wrap;html=1;" vertex="1" parent="1">
          <mxGeometry x="840" y="950" width="120" height="60" as="geometry" />
        </mxCell>
        <mxCell id="54azmL67wLqtKhJhB7nY-59" style="edgeStyle=orthogonalEdgeStyle;rounded=0;orthogonalLoop=1;jettySize=auto;html=1;entryX=1;entryY=0.5;entryDx=0;entryDy=0;" edge="1" parent="1" source="54azmL67wLqtKhJhB7nY-52" target="54azmL67wLqtKhJhB7nY-40">
          <mxGeometry relative="1" as="geometry">
            <Array as="points">
              <mxPoint x="440" y="680" />
              <mxPoint x="440" y="985" />
            </Array>
          </mxGeometry>
        </mxCell>
        <mxCell id="54azmL67wLqtKhJhB7nY-52" value="Essa operação não &lt;br&gt;é possível,&amp;nbsp; pois o estoque não&lt;br&gt;&amp;nbsp;pode ser negativo" style="shape=display;whiteSpace=wrap;html=1;" vertex="1" parent="1">
          <mxGeometry x="495" y="645" width="190" height="70" as="geometry" />
        </mxCell>
      </root>
    </mxGraphModel>
  </diagram>
</mxfile>
